<?xml version="1.0" standalone="no"?>
<!DOCTYPE svg PUBLIC "-//W3C//DTD SVG 20010904//EN"
 "http://www.w3.org/TR/2001/REC-SVG-20010904/DTD/svg10.dtd">
<svg version="1.0" xmlns="http://www.w3.org/2000/svg"
 width="500.000000pt" height="500.000000pt" viewBox="0 0 500.000000 500.000000"
 preserveAspectRatio="xMidYMid meet">

<g transform="translate(0.000000,500.000000) scale(0.100000,-0.100000)"
fill="#000000" stroke="none">
<path d="M2370 4599 c-795 -51 -1494 -599 -1740 -1364 -65 -203 -82 -309 -87
-550 -4 -174 -2 -244 11 -335 61 -418 242 -792 526 -1084 313 -323 642 -502
1086 -592 72 -15 138 -18 349 -19 283 0 352 9 575 76 529 157 995 563 1225
1065 286 624 227 1363 -154 1930 -401 598 -1062 920 -1791 873z m345 -124
c839 -88 1519 -740 1640 -1573 74 -511 -50 -995 -361 -1408 -54 -71 -57 -74
-97 -74 -58 1 -119 15 -207 50 -146 59 -270 176 -415 395 -158 238 -208 355
-495 1170 -292 827 -307 863 -412 1017 -70 103 -120 150 -214 206 -99 58 -174
75 -304 69 -116 -6 -115 -4 20 46 131 49 291 86 434 102 165 18 242 18 411 0z
m-753 -258 c77 -37 190 -137 203 -178 9 -27 -739 -1815 -785 -1876 -48 -64
-115 -104 -187 -112 -42 -4 -58 -10 -58 -21 0 -13 41 -15 305 -15 264 0 305 2
305 15 0 10 -14 17 -45 20 -57 7 -66 13 -91 62 -14 28 -19 52 -16 74 3 18 54
159 114 314 l108 280 419 -3 418 -2 83 -240 c143 -419 243 -624 393 -809 210
-260 448 -389 686 -370 l71 5 -90 -86 c-262 -251 -605 -422 -974 -484 -173
-29 -439 -29 -612 0 -683 116 -1243 593 -1458 1244 -235 710 -33 1477 520
1974 129 116 282 220 350 237 32 8 96 12 160 11 100 -2 110 -4 181 -40z m357
-477 c27 -69 106 -293 175 -497 l125 -373 -384 0 -384 0 13 38 c25 69 377 965
383 975 8 14 18 -5 72 -143z"/>
</g>
</svg>
